<?xml version="1.0" standalone="no"?>
<!DOCTYPE svg PUBLIC "-//W3C//DTD SVG 20010904//EN"
 "http://www.w3.org/TR/2001/REC-SVG-20010904/DTD/svg10.dtd">
<svg version="1.0" xmlns="http://www.w3.org/2000/svg"
 width="591.000000pt" height="591.000000pt" viewBox="0 0 591.000000 591.000000"
 preserveAspectRatio="xMidYMid meet">
<metadata>
Created by potrace 1.14, written by Peter Selinger 2001-2017
</metadata>
<g transform="translate(0.000000,591.000000) scale(0.100000,-0.100000)"
fill="#000000" stroke="none">
<path d="M2797 5694 c-42 -15 -137 -63 -157 -79 -8 -7 -22 -13 -30 -14 -71 -5
-153 -35 -185 -67 -8 -9 -15 -11 -15 -4 0 6 7 13 15 16 8 4 15 10 15 15 0 13
-38 -10 -78 -47 -19 -17 -71 -50 -116 -73 -104 -55 -162 -89 -216 -126 -63
-44 -83 -55 -103 -55 -10 0 -31 -16 -48 -35 -17 -19 -39 -37 -51 -40 -11 -4
-36 -25 -56 -48 -21 -23 -54 -58 -74 -79 -21 -21 -39 -42 -39 -48 -1 -5 -2
-13 -3 -18 0 -4 -18 -26 -39 -49 -56 -60 -87 -105 -87 -124 0 -10 -5 -21 -10
-24 -15 -9 -71 -123 -69 -138 5 -27 -15 -144 -33 -196 -18 -53 -30 -116 -44
-241 -8 -77 -10 -500 -2 -500 4 0 7 -8 6 -17 -1 -41 13 -361 17 -395 3 -20 8
-43 11 -52 9 -24 -11 -19 -59 15 -80 56 -168 49 -203 -16 -17 -31 -17 -41 -5
-122 7 -48 16 -113 21 -143 4 -30 17 -76 29 -103 42 -91 153 -469 160 -548 9
-99 41 -141 146 -195 22 -11 40 -27 41 -35 0 -13 8 -36 37 -102 7 -15 16 -27
20 -27 5 0 6 -4 2 -9 -3 -6 3 -25 13 -43 10 -18 29 -60 42 -93 13 -33 27 -62
30 -65 4 -3 14 -23 22 -46 23 -56 45 -864 28 -998 -6 -49 -13 -93 -15 -96 -2
-4 -32 -17 -65 -29 -43 -16 -81 -41 -127 -82 -36 -32 -69 -60 -74 -60 -5 -1
-14 -2 -21 -3 -53 -5 69 -81 300 -186 210 -96 413 -162 622 -204 682 -137
1337 -49 1953 263 146 74 337 189 337 203 0 14 -68 46 -120 57 -30 7 -72 23
-92 38 -32 22 -48 25 -105 24 -38 0 -74 3 -82 8 -8 5 -18 35 -22 68 -17 124
-31 456 -27 619 6 179 9 192 61 263 9 13 17 32 17 42 0 11 5 19 11 19 5 0 8 4
4 9 -3 5 2 16 10 24 8 9 15 21 15 27 0 7 11 33 24 59 13 25 41 98 61 161 21
64 44 119 53 124 35 20 111 99 126 131 9 18 16 47 16 64 0 18 12 60 26 94 15
34 48 125 74 202 27 77 65 176 85 220 44 95 61 161 69 275 5 70 3 91 -11 119
-43 84 -116 91 -220 21 -32 -21 -59 -37 -61 -35 -2 2 1 19 7 37 6 18 18 107
26 198 8 91 20 188 25 215 6 28 12 77 15 110 2 33 7 76 10 95 3 19 7 51 10 70
2 19 4 35 5 35 1 0 4 32 7 70 12 149 3 336 -18 362 -6 6 -8 22 -4 33 4 13 1
28 -8 38 -23 27 -31 72 -23 136 3 30 -2 48 -20 77 -13 21 -24 45 -24 53 0 8
-6 21 -12 28 -7 7 -37 62 -67 121 -29 59 -69 122 -87 140 -19 17 -34 41 -34
52 0 17 -2 17 -10 5 -7 -10 -12 -12 -17 -4 -5 6 -18 16 -30 23 -18 9 -21 17
-16 41 3 19 1 30 -6 30 -6 0 -11 -7 -11 -16 0 -14 -1 -14 -16 0 -8 9 -19 16
-24 16 -5 0 -38 29 -73 65 -42 43 -75 67 -96 71 -17 4 -31 11 -31 16 0 5 5 6
12 2 6 -4 8 -3 5 4 -7 11 -91 62 -103 62 -3 0 -1 -6 5 -13 8 -10 7 -19 -4 -33
-12 -16 -14 -16 -15 -3 0 9 -10 24 -22 35 -19 17 -21 17 -15 1 6 -16 5 -16
-17 -1 -14 8 -27 21 -30 29 -3 8 -31 26 -63 41 -32 16 -70 36 -84 46 -14 9
-29 15 -32 12 -3 -3 -4 3 -3 13 0 12 -6 18 -19 18 -11 1 -26 5 -34 9 -9 6 -12
5 -8 -2 4 -5 -39 13 -95 41 -57 28 -121 57 -143 63 -22 6 -63 20 -92 31 -44
16 -77 19 -218 19 -149 -1 -166 1 -171 16 -3 10 -3 22 0 26 7 12 -47 9 -87 -4z
m1201 -386 c19 -19 14 -29 -8 -16 -20 13 -27 28 -12 28 4 0 13 -5 20 -12z m-4
-34 c9 -24 2 -26 -12 -4 -7 11 -8 20 -3 20 5 0 12 -7 15 -16z m122 -82 c-4 -3
-14 2 -24 12 -16 18 -16 18 6 6 13 -6 21 -14 18 -18z m-1856 -1831 c0 -6 -4
-13 -10 -16 -5 -3 -10 1 -10 9 0 9 5 16 10 16 6 0 10 -4 10 -9z m1370 -61 c0
-5 -4 -10 -10 -10 -5 0 -10 5 -10 10 0 6 5 10 10 10 6 0 10 -4 10 -10z m-1100
-39 c0 -4 -7 -8 -15 -8 -16 0 -20 9 -9 20 8 8 24 -1 24 -12z m890 -26 c0 -8 0
-17 0 -20 0 -16 -15 -2 -16 15 -1 11 3 20 7 20 5 0 9 -7 9 -15z"/>
</g>
</svg>
